<svg width="16" height="24" viewBox="0 0 16 24" fill="none" xmlns="http://www.w3.org/2000/svg">
<path d="M14.6672 11.0635L3.98685 0.383412C3.73983 0.136194 3.41008 0 3.05847 0C2.70686 0 2.37711 0.136194 2.13009 0.383412L1.34356 1.16975C0.831757 1.68213 0.831757 2.51491 1.34356 3.02651L10.3121 11.995L1.33361 20.9735C1.08658 21.2207 0.950195 21.5503 0.950195 21.9017C0.950195 22.2535 1.08658 22.583 1.33361 22.8305L2.12014 23.6166C2.36735 23.8638 2.69691 24 3.04852 24C3.40013 24 3.72988 23.8638 3.9769 23.6166L14.6672 12.9267C14.9148 12.6787 15.0508 12.3476 15.05 11.9956C15.0508 11.6422 14.9148 11.3113 14.6672 11.0635Z" fill="white"/>
</svg>
